<svg xmlns="http://www.w3.org/2000/svg" width="520.1" height="520.1">
  <path d="M30.84 67.21h473.13v370.02H30.84z" style="opacity:1;fill:#fff;fill-opacity:1;stroke:#fff;stroke-width:.01;stroke-linejoin:miter;stroke-miterlimit:4;stroke-dasharray:none;stroke-opacity:1"/>
  <path d="M0 260.05V0h520.1v520.1H0zm355.62 135.23c.59-17.64 1.18-36.75 1.3-42.48l.23-10.4 30.77-.07c17.74-.04 36.27-1.05 43.77-2.39 41.55-7.41 67.14-24.41 60.58-40.25-8.54-20.6-49.24-33.15-108.26-33.38-37.07-.14-41.18.6-40.42 7.24.54 4.65.67 4.7 10.95 3.84 20.16-1.68 60.55-.46 73.68 2.23 34.93 7.15 52.92 21.13 41.68 32.37-13.82 13.82-56.45 22.3-101.82 20.25l-24.6-1.11.9 46.38c.5 25.5 1.23 47.4 1.62 48.66.4 1.26 2.48 2.04 4.63 1.74 3.85-.55 3.92-1.04 4.99-32.63zM59.17 333.73c.6-4.76.98-20.37.86-34.67l-.22-26H47.68l.45 32.93c.26 18.12.84 33.97 1.3 35.23.46 1.26 2.59 2.04 4.74 1.74 3.28-.47 4.08-1.95 5-9.23zm53.8-11.27c.64-10.96 1.67-24 2.3-28.97l1.12-9.04 15.92-.5 15.92-.5v-10.28l-15.05.52-15.05.52 2.52-10.98c17.21-74.9 64.07-130.82 122.93-146.74l12.14-3.28.51-10.66c.5-10.2.34-10.66-3.58-10.66-11.06 0-35.14 10.24-53.73 22.85-41.3 28.02-76.89 85.3-89.5 144.12l-3.05 14.2-12.01.86c-11.42.83-12.01 1.08-12.01 5.2 0 4.1.58 4.37 10.62 4.85l10.62.5-.9 26.65c-.49 14.65-.4 27.94.21 29.52.68 1.77 2.6 2.66 5.01 2.32 3.72-.53 3.97-1.53 5.07-20.5zm158.05 18.21c31.68-5.52 51.4-17.89 51.43-32.25.04-12.5-20.97-26.68-47.15-31.86-17.32-3.42-51.41-3.4-68.63.03-29.29 5.84-49.06 20.51-46.44 34.47 4.35 23.23 60.82 38.33 110.79 29.61zm-47.8-7.83c-33.85-4.1-52.44-19.08-41.28-33.27 4.53-5.76 20.83-12.82 35.4-15.34 16.8-2.91 47.63-1.26 61.78 3.3 27.82 8.96 32.47 25.41 10.38 36.68-14.35 7.32-44.56 11.25-66.28 8.63zm-163.98-77.4c4.52-4.08 4-10.37-1.16-13.75-4.02-2.63-4.66-2.63-8.67 0-5 3.27-5.6 8.88-1.47 13.46 3.57 3.93 7.18 4.03 11.3.3z" style="fill:#b01f23;fill-opacity:1;stroke-width:1.73368192"/>
</svg>
