<?xml version="1.0" encoding="UTF-8"?>
<svg version="1.1" xmlns="http://www.w3.org/2000/svg" width="1000" height="866">
<path d="M0 0 C1.58847748 -0.00250763 1.58847748 -0.00250763 3.20904541 -0.00506592 C62.35532919 -0.01064923 62.35532919 -0.01064923 73.5 10.5625 C75.0625 13.25 75.0625 13.25 75.1875 16.25 C73.70775935 20.19597507 71.63406729 22.19690283 68.0625 24.25 C60.19653379 27.63827883 51.80680673 27.94127227 43.38415527 28.47131348 C-41.46413288 33.94077202 -118.81122609 61.08801907 -200.1875 136.875 C-201.43796173 138.33293744 -202.68790047 139.7913235 -203.9375 141.25 C-204.78570312 142.2090625 -205.63390625 143.168125 -206.5078125 144.15625 C-262.47801331 207.95002989 -285.67062975 315.99806832 -280.71044922 399.05175781 C-276.73949091 449.51864595 -257.76586378 496.21631608 -221.9375 532.25 C-220.29524925 533.61329309 -218.63680848 534.95852555 -216.9375 536.25 C-218.10254488 532.02800109 -219.27316367 527.80769865 -220.453125 523.58984375 C-221.44348159 520.04585663 -222.40928694 516.49638451 -223.359375 512.94140625 C-227.62927164 497.17942089 -233.28774159 483.13167914 -241.9375 469.25 C-223.17468877 464.03810799 -200.71418087 464.03453048 -183.38671875 473.7265625 C-182.57847656 474.22929687 -181.77023437 474.73203125 -180.9375 475.25 C-180.32519531 475.62898438 -179.71289062 476.00796875 -179.08203125 476.3984375 C-165.87014139 485.97620855 -162.19825604 508.13896162 -158.56079102 522.9375 C-155.47284256 535.79218076 -155.47284256 535.79218076 -146.9375 545.25 C-144.28815178 545.96433121 -144.28815178 545.96433121 -141.9375 546.25 C-141.69386719 545.55519531 -141.45023437 544.86039063 -141.19921875 544.14453125 C-133.04742521 525.44335783 -115.82949221 510.67714886 -97.30078125 502.91015625 C-72.555807 493.2430394 -45.91334383 496.38452288 -20.34970093 500.67370605 C4.17540382 504.77941196 28.23247797 506.10823647 50.0625 492.25 C57.53306643 486.54706448 64.04164984 480.31255048 67.0625 471.25 C66.36125 471.064375 65.66 470.87875 64.9375 470.6875 C57.35327545 466.89538772 53.7607106 458.93465635 51.0625 451.25 C46.56103764 435.29500985 47.66368868 422.75262512 55.703125 408.30078125 C63.87242157 394.81408218 75.15693967 388.37719177 88.625 380.8125 C89.42333252 380.36285889 90.22166504 379.91321777 91.04418945 379.44995117 C91.794021 379.03463135 92.54385254 378.61931152 93.31640625 378.19140625 C93.99002197 377.81701416 94.6636377 377.44262207 95.35766602 377.05688477 C97.0625 376.25 97.0625 376.25 99.0625 376.25 C96.7944653 363.55696369 92.82694057 353.86634946 82.0625 346.25 C69.08075525 338.19323623 51.85533813 338.37509003 37.26513672 341.37915039 C33.81862092 342.20169723 30.43827486 343.17525343 27.0625 344.25 C26.39557129 344.45898926 25.72864258 344.66797852 25.04150391 344.88330078 C17.08910646 347.44704157 9.6831249 350.76607476 2.375 354.8125 C1.38584595 355.35813599 1.38584595 355.35813599 0.37670898 355.91479492 C-4.71166857 358.8494106 -8.35723551 362.47915084 -12.26953125 366.86328125 C-26.31713731 382.1497313 -46.25749678 386.90113704 -65.9375 391.25 C-66.9275 391.25 -67.9175 391.25 -68.9375 391.25 C-68.56496094 391.80429687 -68.19242187 392.35859375 -67.80859375 392.9296875 C-67.33550781 393.65414063 -66.86242187 394.37859375 -66.375 395.125 C-65.89933594 395.84429687 -65.42367188 396.56359375 -64.93359375 397.3046875 C-64.60488281 397.94664062 -64.27617187 398.58859375 -63.9375 399.25 C-64.2675 399.91 -64.5975 400.57 -64.9375 401.25 C-65.30101562 400.80527344 -65.66453125 400.36054688 -66.0390625 399.90234375 C-66.54179687 399.33644531 -67.04453125 398.77054687 -67.5625 398.1875 C-68.04976563 397.61902344 -68.53703125 397.05054688 -69.0390625 396.46484375 C-70.97002735 394.98078282 -70.97002735 394.98078282 -73.84375 395.3125 C-77.41639196 396.39511877 -79.09236201 397.77920855 -81.8125 400.3125 C-96.15335954 412.5461312 -114.26806 418.14874594 -133.0703125 417.0703125 C-142.14812836 415.90892091 -151.41622716 412.7652273 -157.1875 405.375 C-159.64412408 402.63147092 -160.6687815 402.27317058 -164.42578125 401.94921875 C-166.48367108 401.97492977 -168.52994026 402.0641057 -170.58496094 402.17431641 C-177.93363888 402.50648891 -184.02757122 400.66847507 -190.9375 398.25 C-196.6357461 410.79081212 -200.00972083 423.62871821 -201.9375 437.25 C-203.9375 435.25 -203.9375 435.25 -204.0546875 431.93359375 C-203.98981524 430.51741379 -203.90788275 429.10195263 -203.8125 427.6875 C-203.76536865 426.93605713 -203.7182373 426.18461426 -203.66967773 425.41040039 C-202.97286607 416.39123779 -200.77028834 407.72939516 -198.31445312 399.04736328 C-197.79151703 397.13122534 -197.35752196 395.19129553 -196.9375 393.25 C-198.1481557 391.19995161 -198.1481557 391.19995161 -199.9375 390.25 C-208.85820474 393.96359655 -214.52364958 404.11466785 -218.9375 412.25 C-219.9375 410.25 -219.9375 410.25 -219.22265625 407.81640625 C-216.46337981 401.03722547 -213.20406458 395.40321491 -208.70703125 389.625 C-206.41123745 386.64357456 -206.41123745 386.64357456 -204.9375 383.25 C-205.7288437 380.04101437 -205.7288437 380.04101437 -206.9375 377.25 C-207.54746826 377.51216309 -208.15743652 377.77432617 -208.78588867 378.04443359 C-211.56531719 379.23859756 -214.3451543 380.43180751 -217.125 381.625 C-218.08470703 382.0375 -219.04441406 382.45 -220.03320312 382.875 C-221.43022461 383.47441406 -221.43022461 383.47441406 -222.85546875 384.0859375 C-223.70906982 384.45251465 -224.5626709 384.8190918 -225.44213867 385.19677734 C-227.92866627 386.24627153 -230.42841431 387.2557969 -232.9375 388.25 C-226.51106592 380.93716122 -217.64276067 376.35625503 -208.9375 372.25 C-208.97230469 371.49976563 -209.00710938 370.74953125 -209.04296875 369.9765625 C-209.17668942 364.92064746 -209.24520198 360.47409767 -207.5 355.6875 C-205.04253921 348.58047726 -205.31260734 341.0318908 -205.07299805 333.59082031 C-204.93476728 331.20279047 -204.62779227 328.87941696 -204.29296875 326.51171875 C-203.83799276 322.69400358 -204.2781976 320.18420265 -205.875 316.625 C-208.91926294 308.9666103 -208.18025998 303.86707784 -205.296875 296.29296875 C-203.27540036 291.76788616 -200.78634656 287.53519893 -198.23046875 283.29296875 C-196.44814859 279.09832402 -197.13602836 276.39694736 -198.69140625 272.23046875 C-198.95824219 271.63878906 -199.22507812 271.04710937 -199.5 270.4375 C-201.15100661 266.17921067 -202.01310099 261.75566714 -200.9375 257.25 C-199.40625 255.02734375 -199.40625 255.02734375 -196.9375 253.25 C-195.03133455 253.01555184 -193.12059856 252.79267971 -191.20239258 252.69824219 C-185.18876111 252.32759823 -180.53875011 251.44666812 -176.421875 246.80859375 C-173.61352091 243.17868748 -171.09499018 239.34921191 -168.54980469 235.53222656 C-165.95841863 231.86410469 -162.96678862 228.62378362 -159.875 225.375 C-158.99158936 224.4466333 -158.99158936 224.4466333 -158.09033203 223.49951172 C-100.83402369 164.11731108 -12.67222281 134.01799945 68.0625 128.25 C68.82997559 128.19360352 69.59745117 128.13720703 70.38818359 128.07910156 C119.89858246 124.59056397 169.9889249 130.23786022 216.0625 149.25 C216.0625 149.91 216.0625 150.57 216.0625 151.25 C215.00933594 151.46914062 213.95617187 151.68828125 212.87109375 151.9140625 C202.11407244 154.24610945 191.95102021 157.3057399 182.0625 162.25 C182.7946875 162.1778125 183.526875 162.105625 184.28125 162.03125 C228.31381346 158.25703027 268.20188338 167.77632613 302.73828125 196.26171875 C306.92532476 199.84357614 311.03600138 203.48815387 315.0625 207.25 C315.87589844 208.00925781 316.68929687 208.76851562 317.52734375 209.55078125 C324.45455421 216.23723558 330.31353043 223.55634289 336.0625 231.25 C336.49594727 231.8279834 336.92939453 232.4059668 337.37597656 233.00146484 C366.81574598 272.51860795 383.29425051 319.71709474 391.3125 368 C391.46388428 368.90814453 391.61526855 369.81628906 391.77124023 370.75195312 C394.62233953 389.20270764 395.44159657 407.66801555 395.375 426.3125 C395.37226578 427.91366669 395.37226578 427.91366669 395.36947632 429.54718018 C395.29379214 455.97648869 392.58502948 481.36687047 387.0625 507.25 C386.85286621 508.23709961 386.64323242 509.22419922 386.42724609 510.24121094 C377.29759497 552.08720233 359.80805767 592.28212176 335.0625 627.25 C334.23432076 628.43616005 333.40619661 629.62235856 332.578125 630.80859375 C317.6604368 652.04173611 300.92873997 671.57201224 282.58300781 689.91479492 C281.05763287 691.44237416 279.54049328 692.97783582 278.0234375 694.51367188 C271.69525711 700.87792661 265.10070989 706.66590302 258.0625 712.25 C256.75670023 713.33408068 255.45421625 714.42217743 254.15625 715.515625 C244.23635621 723.78877023 233.85391699 731.16031551 223.0625 738.25 C222.30098633 738.7538623 221.53947266 739.25772461 220.75488281 739.77685547 C173.81812955 770.68912353 120.36309934 791.21831087 64.875 800 C63.63049072 800.19867676 62.38598145 800.39735352 61.10375977 800.60205078 C41.27879843 803.59716113 21.5993149 804.62950723 1.5625 804.5625 C0.42530518 804.56067719 -0.71188965 804.55885437 -1.88354492 804.55697632 C-19.74533579 804.50891193 -37.24885502 803.9156279 -54.9375 801.25 C-56.63277832 801.00056641 -56.63277832 801.00056641 -58.36230469 800.74609375 C-123.19657425 790.90338766 -185.51106975 765.82848419 -237.9375 726.25 C-238.83734619 725.57759277 -238.83734619 725.57759277 -239.75537109 724.89160156 C-248.08626232 718.66170782 -256.10168313 712.08794143 -263.9375 705.25 C-264.82050781 704.48042969 -265.70351563 703.71085938 -266.61328125 702.91796875 C-273.31102686 696.91810691 -279.70757347 690.60713287 -286.08843994 684.27429199 C-287.09566232 683.27511139 -288.10436031 682.27741559 -289.11468506 681.28137207 C-295.86134921 674.61999472 -302.03317457 667.67002423 -307.9375 660.25 C-308.80088597 659.22244805 -309.66927736 658.1990349 -310.546875 657.18359375 C-327.05486902 637.93430875 -340.59625171 616.34078906 -352.9375 594.25 C-353.3588623 593.50057129 -353.78022461 592.75114258 -354.21435547 591.97900391 C-380.00437093 545.76643813 -394.97014485 492.81737767 -399.9375 440.25 C-400.0317627 439.26459229 -400.12602539 438.27918457 -400.22314453 437.26391602 C-401.16830789 425.9616898 -401.1809988 414.64761326 -401.1875 403.3125 C-401.18817474 402.25130951 -401.18884949 401.19011902 -401.18954468 400.09677124 C-401.15335226 364.1144082 -396.56469877 328.96968168 -386.9375 294.25 C-386.68274902 293.3209082 -386.42799805 292.39181641 -386.16552734 291.43457031 C-379.08647645 265.96774022 -368.80662892 241.82414959 -356.9375 218.25 C-356.51645996 217.40147461 -356.09541992 216.55294922 -355.66162109 215.67871094 C-341.21904996 186.65397072 -322.10078329 159.491943 -300.1328125 135.65625 C-298.90188333 134.3070465 -297.67968518 132.94928131 -296.4909668 131.56274414 C-291.42965991 125.66272768 -286.00666149 120.17067893 -280.5 114.6875 C-279.59701172 113.78064453 -278.69402344 112.87378906 -277.76367188 111.93945312 C-272.6507624 106.83394829 -267.45684121 101.91278151 -261.9375 97.25 C-260.98580933 96.43825317 -260.98580933 96.43825317 -260.01489258 95.61010742 C-237.49220969 76.50894949 -213.08124478 60.00072567 -186.9375 46.25 C-186.05964844 45.78384277 -185.18179688 45.31768555 -184.27734375 44.83740234 C-138.21215304 20.53144723 -87.66429119 6.46736067 -35.9375 1.25 C-35.02121826 1.15428711 -34.10493652 1.05857422 -33.16088867 0.95996094 C-22.13123334 -0.04675333 -11.06620231 0.00921309 0 0 Z " fill="#1D2E59" transform="translate(472.9375,-0.25)"/>
<path d="M0 0 C-0.70125 0.66 -1.4025 1.32 -2.125 2 C-13.0551896 13.05369456 -17.3529195 25.08169516 -17.53442383 40.3293457 C-17.35052475 52.5299309 -13.883417 64.00193717 -10.82910156 75.73583984 C-5.60616577 96.29845809 -5.01267466 118.30178897 -8.6875 139.1875 C-8.90998413 140.46717651 -8.90998413 140.46717651 -9.13696289 141.77270508 C-12.4295055 157.96519479 -22.95729974 167.70298227 -35.55859375 177.33203125 C-40.28505236 180.9576107 -44.70617484 184.87284828 -49 189 C-49.58394531 189.5465625 -50.16789062 190.093125 -50.76953125 190.65625 C-58.1389019 198.2681569 -60.88132164 209.66612708 -61.53515625 219.953125 C-61.57813339 220.61334656 -61.62111053 221.27356812 -61.66539001 221.95379639 C-61.80120339 224.05232656 -61.93192232 226.15113819 -62.0625 228.25 C-62.15396033 229.67710494 -62.24575352 231.10418859 -62.33789062 232.53125 C-62.56244962 236.02059502 -62.78244235 239.51021066 -63 243 C-61.87078125 242.41992188 -61.87078125 242.41992188 -60.71875 241.828125 C-52.68060897 237.88709469 -44.81888474 235.40829091 -36.11383057 233.47134399 C-32.48273372 232.66167849 -28.86345375 231.80157483 -25.2421875 230.94921875 C-24.173741 230.69962654 -24.173741 230.69962654 -23.08370972 230.44499207 C-10.00842344 227.37912618 3.00959621 224.17531526 15 218 C16.27350952 217.38287183 17.54836245 216.76851169 18.82421875 216.15625 C48.01631578 202.03737668 70.11075873 181.9589211 81.0625 150.99609375 C82.91467329 144.73610423 83.63509924 138.50529978 84 132 C84.66 132 85.32 132 86 132 C88.45939475 146.91632916 88.87471319 165.21650674 81.44091797 178.86181641 C78.98298501 184.56474499 79.67507342 190.82423133 79.77734375 196.91015625 C79.78805553 198.28233177 79.79710111 199.65452119 79.80458069 201.02671814 C79.82730195 204.64010174 79.86623591 208.25309532 79.9105835 211.86627197 C79.98914712 218.27660083 80.05269013 224.68694774 80.08984375 231.09765625 C80.0939432 231.78719706 80.09804264 232.47673786 80.10226631 233.18717384 C80.17852517 250.37419449 78.99850237 267.25518002 75 284 C74.84192871 284.70624512 74.68385742 285.41249023 74.52099609 286.14013672 C66.71354033 320.8208103 47.34258927 354.31920847 17 374 C8.1520778 379.28831111 -0.80244291 383.18008199 -11 385 C-12.36318359 385.27070312 -12.36318359 385.27070312 -13.75390625 385.546875 C-31.20518286 387.98291361 -47.9824223 385.15916081 -64 378 C-71.19070519 374.90156606 -78.32301499 372.58413976 -86 371 C-86.83724609 370.82645996 -87.67449219 370.65291992 -88.53710938 370.47412109 C-96.65366108 368.94108503 -104.50753294 368.76315024 -112.75 368.875 C-114.03132813 368.88402344 -115.31265625 368.89304687 -116.6328125 368.90234375 C-119.75541221 368.92564673 -122.87760025 368.95835946 -126 369 C-126 369.66 -126 370.32 -126 371 C-125.18917969 371.03738281 -124.37835937 371.07476563 -123.54296875 371.11328125 C-115.96120788 371.56342072 -109.19976216 372.60596866 -102 375 C-101.32727051 375.21897949 -100.65454102 375.43795898 -99.96142578 375.66357422 C-81.73708907 381.6774066 -66.45204388 390.60841581 -51.0859375 402 C-44.76660557 406.67882049 -38.40745256 411.23367701 -31 414 C-31 414.33 -31 414.66 -31 415 C-46.10594965 414.92737524 -59.33579104 406.87700317 -72.26977539 399.97631836 C-79.53096759 396.15305153 -86.85376792 392.79196491 -94.5 389.8125 C-95.42433838 389.45051514 -96.34867676 389.08853027 -97.30102539 388.71557617 C-133.87002825 374.89050517 -177.09709489 384.50241032 -211.51293945 400.00805664 C-213.97492271 401.12942375 -216.42196294 402.27467701 -218.86791992 403.43139648 C-229.60207433 408.48280817 -240.04002951 412.7859028 -252.0625 412.5625 C-252.91956543 412.55154297 -253.77663086 412.54058594 -254.65966797 412.52929688 C-266.78587731 412.1172301 -275.17410725 407.02613548 -284 399 C-284.77601563 398.31679688 -285.55203125 397.63359375 -286.3515625 396.9296875 C-296.19041401 387.73180351 -303.65179307 376.2973562 -311.28125 365.2734375 C-318.7831883 354.4178008 -318.7831883 354.4178008 -328 345 C-326.65867425 342.13734202 -325.09821762 339.73432938 -323.21484375 337.203125 C-318.98700121 330.92996586 -316.90043489 323.87375495 -314.5625 316.75 C-308.30264199 297.7242647 -300.71806274 280.6960602 -282 271 C-278.39184752 269.41568375 -274.77516497 268.1249229 -271 267 C-270.24291748 266.74919678 -269.48583496 266.49839355 -268.70581055 266.23999023 C-261.02703389 263.86954547 -253.81594954 263.49925621 -245.8125 263.5625 C-244.51127197 263.56717285 -243.21004395 263.5718457 -241.86938477 263.57666016 C-228.70699225 263.72499598 -213.1400012 264.30215588 -201 270 C-201.70640625 270.556875 -202.4128125 271.11375 -203.140625 271.6875 C-217.962967 283.67496784 -227.76247184 296.36961805 -235 314 C-235 314.66 -235 315.32 -235 316 C-234.45085937 315.05253906 -234.45085937 315.05253906 -233.890625 314.0859375 C-223.61968957 297.11443944 -207.94059008 277.94185859 -188.12109375 272.5 C-183.97465513 271.8357395 -179.87992554 271.79213959 -175.6875 271.6875 C-156.71905603 271.10950923 -136.18307804 264.86317651 -122.41796875 251.25 C-121 250 -121 250 -119 250 C-118.61134766 249.15115234 -118.61134766 249.15115234 -118.21484375 248.28515625 C-116.879282 245.77292595 -115.32117377 243.67271763 -113.5625 241.4375 C-112.96566406 240.67308594 -112.36882812 239.90867187 -111.75390625 239.12109375 C-111.17511719 238.42113281 -110.59632813 237.72117187 -110 237 C-109.56945312 236.38640625 -109.13890625 235.7728125 -108.6953125 235.140625 C-107 234 -107 234 -103.86328125 234.36328125 C-102.69152344 234.67652344 -101.51976562 234.98976563 -100.3125 235.3125 C-99.13300781 235.61800781 -97.95351563 235.92351562 -96.73828125 236.23828125 C-95.83464844 236.48964844 -94.93101562 236.74101562 -94 237 C-93.87753906 235.88625 -93.75507812 234.7725 -93.62890625 233.625 C-93.23534854 230.45987976 -92.69289602 227.36894827 -92.02734375 224.25 C-88.41311762 207.10697903 -84.97778566 186.42005076 -93 170 C-93.99391701 168.66212603 -94.99262602 167.32777086 -96 166 C-96 165.34 -96 164.68 -96 164 C-90.81298543 164.31436452 -87.4052641 167.30033267 -84 171 C-84 171.66 -84 172.32 -84 173 C-83.34 173 -82.68 173 -82 173 C-81.896875 172.071875 -81.79375 171.14375 -81.6875 170.1875 C-81.09014846 165.92812383 -79.91604144 161.87076275 -78.71875 157.74609375 C-74.55190749 141.82603787 -75.71277132 124.35115043 -83.7265625 109.8828125 C-91.68403366 98.06121955 -103.29025893 89.70247366 -117.25 86.6875 C-140.32644559 83.28813691 -162.21989916 89.58759374 -182.5390625 100.23046875 C-185.33116307 101.65803258 -188.06672191 102.90423519 -191 104 C-191.0093457 103.43192627 -191.01869141 102.86385254 -191.02832031 102.27856445 C-191.33959191 87.18341799 -191.80625871 73.13839348 -202 61 C-202.33 61 -202.66 61 -203 61 C-202.525625 62.051875 -202.05125 63.10375 -201.5625 64.1875 C-198.49822979 70.98218612 -198.78400093 77.93130048 -198.75 85.25 C-198.7190625 86.89162109 -198.7190625 86.89162109 -198.6875 88.56640625 C-198.65517353 95.31455755 -199.378097 100.77784776 -202 107 C-202.35320312 107.91910156 -202.70640625 108.83820313 -203.0703125 109.78515625 C-209.20777047 123.0375192 -221.05097479 128.19138879 -234 133.1484375 C-236.98062526 134.18337683 -239.97355984 135.10736019 -243 136 C-243.72751465 136.21962402 -244.4550293 136.43924805 -245.20458984 136.66552734 C-247.63258965 137.3948655 -250.06514377 138.10641356 -252.5 138.8125 C-253.27835205 139.04404785 -254.0567041 139.2755957 -254.85864258 139.51416016 C-258.637919 140.58003582 -261.26269178 141.26894651 -265 140 C-267.140625 138.58984375 -267.140625 138.58984375 -269.25 136.9375 C-269.95640625 136.38964844 -270.6628125 135.84179688 -271.390625 135.27734375 C-271.92171875 134.85582031 -272.4528125 134.43429687 -273 134 C-271.38050721 130.58749733 -269.36002699 127.95003374 -267 125 C-266.29114106 123.68861096 -265.60543548 122.36222983 -265 121 C-259.34979382 121.60108576 -254.33835539 123.07528683 -249 125 C-250.49853516 124.34257812 -250.49853516 124.34257812 -252.02734375 123.671875 C-262.35578988 118.74567429 -262.35578988 118.74567429 -264.1171875 113.97265625 C-264.30525783 110.92967838 -264.18864859 108.03933845 -264 105 C-264.28127855 103.32376277 -264.59843365 101.65155483 -265 100 C-256.48627215 99.68725081 -248.3969326 100.62707087 -240 102 C-243.3315814 101.18020333 -246.66554352 100.37051582 -250 99.5625 C-250.93457031 99.33240234 -251.86914062 99.10230469 -252.83203125 98.86523438 C-257.03319967 97.85166577 -261.12910044 96.92269666 -265.43359375 96.49609375 C-268.85190077 96.02060088 -270.37538155 95.53157966 -273.0625 93.5 C-276.78662367 90.94104769 -279.51467732 90.28033267 -284 90 C-282.5459375 90.680625 -282.5459375 90.680625 -281.0625 91.375 C-278 93 -278 93 -277 95 C-277.82854492 95.05945801 -277.82854492 95.05945801 -278.67382812 95.12011719 C-290.82455804 96.03117026 -302.29242148 97.5887395 -314 101 C-313.01177246 100.83773926 -312.02354492 100.67547852 -311.00537109 100.50830078 C-306.97612654 99.93522178 -302.97848973 99.85550828 -298.9140625 99.8671875 C-297.80047867 99.86575241 -297.80047867 99.86575241 -296.66439819 99.86428833 C-295.10976068 99.86361253 -293.55512025 99.86542458 -292.00048828 99.86962891 C-289.61093944 99.87503179 -287.22157467 99.86964032 -284.83203125 99.86328125 C-283.31770792 99.86394124 -281.8033847 99.86522077 -280.2890625 99.8671875 C-279.57247467 99.86516327 -278.85588684 99.86313904 -278.11758423 99.86105347 C-273.1149828 99.8850172 -273.1149828 99.8850172 -272 101 C-271.92755947 103.01964199 -271.91622812 105.04167124 -271.9375 107.0625 C-271.94652344 108.16722656 -271.95554687 109.27195312 -271.96484375 110.41015625 C-271.97644531 111.26480469 -271.98804688 112.11945313 -272 113 C-272.78503906 112.86722656 -273.57007813 112.73445313 -274.37890625 112.59765625 C-275.42949219 112.42105469 -276.48007812 112.24445313 -277.5625 112.0625 C-278.59503906 111.88847656 -279.62757813 111.71445312 -280.69140625 111.53515625 C-282.32916016 111.27025391 -282.32916016 111.27025391 -284 111 C-285.546875 110.7215625 -285.546875 110.7215625 -287.125 110.4375 C-292.56916116 109.82283664 -297.96407852 109.89527182 -303.4375 109.9375 C-304.55060547 109.94201172 -305.66371094 109.94652344 -306.81054688 109.95117188 C-309.54042101 109.96288807 -312.27018174 109.97929301 -315 110 C-314.09628662 110.10489746 -314.09628662 110.10489746 -313.17431641 110.21191406 C-299.91289712 111.77741089 -286.97009467 113.81010156 -274 117 C-275.79509471 122.18189901 -278.35137604 125.12131164 -283 128 C-285.375 128.0625 -285.375 128.0625 -288 127 C-289.43499219 126.51337452 -290.87280044 126.03501678 -292.3125 125.5625 C-293.0859375 125.29953125 -293.859375 125.0365625 -294.65625 124.765625 C-299.45008057 123.19964035 -303.91583924 122 -309 122 C-300.09 125.465 -300.09 125.465 -291 129 C-291 129.66 -291 130.32 -291 131 C-294.89205937 131.92476055 -298.45059355 132.0914963 -302.4453125 132.02734375 C-303.68796875 132.01509766 -304.930625 132.00285156 -306.2109375 131.99023438 C-308.79693532 131.95539309 -311.382881 131.91640748 -313.96875 131.87304688 C-325.64154859 131.77075946 -336.73820388 132.0956842 -346 140 C-347.84172361 142.64599051 -348.84496512 144.95490804 -350 148 C-359.07945511 148.58118845 -365.55559819 148.48367071 -373 143 C-373.9075 142.4225 -374.815 141.845 -375.75 141.25 C-379.96281511 137.03718489 -382.73405225 132.76918091 -383.3125 126.74609375 C-383.3125 123.81329916 -383.22261847 120.9237226 -383 118 C-380.49520026 119.17100701 -378.85355993 120.13807207 -376.8125 122.0625 C-372.9723732 124.70792068 -369.62223643 125.19634279 -365 125 C-358.65882959 122.92692506 -355.3658534 118.57994532 -352.3125 112.8125 C-351.06676286 109.75231964 -350.70992019 106.8321843 -350.3125 103.5625 C-349.21012486 97.07271085 -346.18744649 93.8588509 -341 90 C-329.29704725 82.11439631 -317.29421415 80.58961239 -303.4375 80.4375 C-284.6106231 80.17260908 -267.23866981 77.17634641 -252.89453125 63.9921875 C-248.51025324 59.38191577 -245.2274959 54.00215155 -241.9140625 48.59765625 C-228.56129035 26.88901601 -208.60588748 15.06962015 -184 9 C-180.32277496 8.21268482 -176.63483197 7.49873778 -172.9375 6.8125 C-172.03966797 6.64540527 -171.14183594 6.47831055 -170.21679688 6.30615234 C-157.76590081 4.1111959 -145.3593749 3.79171532 -132.75 3.8125 C-131.95698486 3.81376892 -131.16396973 3.81503784 -130.34692383 3.81634521 C-97.67929155 3.91559156 -61.67520118 6.23865544 -33.6796875 24.96875 C-32.04443198 26.17440418 -32.04443198 26.17440418 -30 26 C-29.72349609 25.09121094 -29.72349609 25.09121094 -29.44140625 24.1640625 C-25.99320345 14.20258773 -20.11231746 7.28675768 -10.75 2.375 C-6.95768468 0.55910298 -4.21159153 -0.29204467 0 0 Z " fill="#FDFDFD" transform="translate(659,243)"/>
<path d="M0 0 C-1 3 -1 3 -2.94140625 4.24609375 C-13.19773302 8.90806046 -23.86792 11.13814763 -34.83203125 13.44140625 C-36.05220947 13.69865479 -37.2723877 13.95590332 -38.52954102 14.22094727 C-40.95155011 14.72810856 -43.37516204 15.22769386 -45.80053711 15.71850586 C-52.51897079 17.11255836 -58.94170774 18.85197828 -65.42236328 21.10742188 C-68.35506606 22.12295146 -71.31323351 22.95452472 -74.3125 23.75 C-80.87771004 25.59440683 -87.30928054 27.76127203 -93.75 30 C-94.70817627 30.33225586 -95.66635254 30.66451172 -96.65356445 31.00683594 C-102.01537778 32.88797924 -107.30507232 34.89387348 -112.56982422 37.03076172 C-114.95342353 37.98142369 -117.35025055 38.87660433 -119.76171875 39.75390625 C-151.44176632 51.32807648 -179.94033662 67.64596727 -206 89 C-206.56396484 89.45955078 -207.12792969 89.91910156 -207.70898438 90.39257812 C-221.42596859 101.63831547 -234.08333227 114.00327245 -245 128 C-245.91351995 129.10417345 -246.83039806 130.20557422 -247.75 131.3046875 C-265.34509588 152.48848611 -278.17041463 176.57662122 -289.875 201.375 C-290.18806091 202.03487915 -290.50112183 202.6947583 -290.82366943 203.37463379 C-295.11649408 212.45496681 -298.90529127 221.63349396 -302.30697632 231.08346558 C-302.97321177 232.92591801 -303.65678657 234.7620724 -304.34106445 236.59790039 C-307.39522794 244.89243288 -309.84223234 253.25996935 -312.0625 261.8125 C-312.41240947 263.15049994 -312.76242706 264.48847161 -313.11254883 265.82641602 C-313.7893708 268.42047515 -314.46001989 271.01591354 -315.12792969 273.61230469 C-315.81692863 276.28883027 -316.51869421 278.96126054 -317.2265625 281.6328125 C-325.00106473 312.41478475 -327.13427651 343.69129646 -327.3125 375.3125 C-327.32221832 376.32762665 -327.33193665 377.3427533 -327.34194946 378.38864136 C-327.54954983 403.96692009 -324.21741207 429.9975402 -315 454 C-314.66758301 454.8672168 -314.33516602 455.73443359 -313.99267578 456.62792969 C-306.04055051 477.07824396 -296.52299361 496.63245284 -283 514 C-282.25105469 514.97066406 -281.50210938 515.94132813 -280.73046875 516.94140625 C-270.0559797 530.38266304 -260.13529474 540.47647048 -242.87109375 543.55859375 C-239.8134417 543.9072463 -236.8889471 544.09764536 -233.8203125 544.17578125 C-232.89089844 544.19962891 -231.96148437 544.22347656 -231.00390625 544.24804688 C-229.0926714 544.29083571 -227.1811444 544.32218388 -225.26953125 544.34179688 C-218.03423277 544.55695444 -211.23127464 545.76872536 -205.9375 551.0625 C-205 553 -205 553 -205 556 C-205.66644531 555.86070068 -206.33289063 555.72140137 -207.01953125 555.57788086 C-226.19709079 551.79768883 -244.9686514 553.37409368 -263 561 C-261.91699761 564.24900717 -261.36840631 564.74706612 -258.8125 566.8125 C-226.85768407 594.07144692 -199.92132754 635.80995065 -190.5625 677 C-186.9443221 692.1837986 -180.98795613 704.63609231 -167.9375 713.8125 C-158.58507074 719.37411291 -147.65157924 722.09047137 -136.94140625 723.54296875 C-136.30074219 723.69378906 -135.66007813 723.84460938 -135 724 C-134.67 724.66 -134.34 725.32 -134 726 C-139.1453961 727.51069251 -144.36861269 727.18429778 -149.6875 727.1875 C-150.73873047 727.19974609 -151.78996094 727.21199219 -152.87304688 727.22460938 C-167.17620733 727.25131098 -179.41453767 723.31633413 -189.9765625 713.25 C-198.75868964 703.48454588 -204.0753976 691.08598593 -207.3125 678.5 C-214.38469609 651.2156894 -229.39518851 625.79706502 -247 604 C-247.42506836 603.47051758 -247.85013672 602.94103516 -248.28808594 602.39550781 C-256.67254176 592.01745677 -265.84238269 582.26322164 -275.96875 573.5625 C-280.00986142 570.05933031 -283.68150851 566.29730174 -287.3125 562.375 C-287.96057617 561.67769775 -288.60865234 560.98039551 -289.27636719 560.26196289 C-313.73836691 533.7795832 -332.60643395 504.48329347 -345.06298828 470.55175781 C-345.85701792 468.38938215 -346.67291239 466.23729142 -347.49609375 464.0859375 C-364.87936149 416.10595239 -362.15302288 358.54034887 -354 309 C-353.82954163 307.94416718 -353.82954163 307.94416718 -353.65563965 306.86700439 C-350.30082653 286.14327042 -345.15780486 266.04108133 -339 246 C-338.80128296 245.35164185 -338.60256592 244.70328369 -338.39782715 244.03527832 C-319.63305712 183.05262982 -284.73111745 120.92750074 -233.546875 80.98828125 C-230.74740504 78.80280547 -228.07011628 76.50020114 -225.375 74.1875 C-175.81450093 32.92966186 -111.70824028 8.53802338 -48.0625 0.875 C-47.32498505 0.78562164 -46.58747009 0.69624329 -45.8276062 0.60415649 C-10.7072208 -3.5690736 -10.7072208 -3.5690736 0 0 Z " fill="#FCFCFC" transform="translate(508,13)"/>
<path d="M0 0 C6.5002862 3.58150259 8.94305166 9.13973824 11 16 C14.90152898 31.28098851 10.23763023 48.46877826 3 62 C-5.37072007 75.08312545 -15.83099467 82.42025361 -29 90.0625 C-30.43725398 90.90441963 -31.87409821 91.74703913 -33.31054688 92.59033203 C-36.1899954 94.27894544 -39.07224348 95.96261501 -41.95703125 97.64208984 C-45.51105946 99.71217118 -49.05413923 101.79989513 -52.59375 103.89453125 C-65.27826902 111.38299466 -78.13696694 118.49331629 -91.12109375 125.44726562 C-93.87239084 126.93117416 -96.61032948 128.4365828 -99.34375 129.953125 C-163.32290448 165.41802524 -224.50702016 187.54648464 -298.5625 187.3125 C-299.74433868 187.31100952 -300.92617737 187.30951904 -302.14382935 187.3079834 C-340.98307935 187.22075319 -381.12005175 185.17710087 -419 176 C-419 175.67 -419 175.34 -419 175 C-418.33998993 174.99191315 -417.67997986 174.98382629 -416.99996948 174.97549438 C-373.94717198 174.66774308 -373.94717198 174.66774308 -331 172 C-329.58889007 171.87100599 -328.17775599 171.7422759 -326.76660156 171.61376953 C-295.44147877 168.72460987 -264.42959993 164.12684236 -234 156 C-233.0315918 155.74669922 -232.06318359 155.49339844 -231.06542969 155.23242188 C-202.08336754 147.57171118 -174.96391902 135.54115495 -148.62646484 121.40673828 C-145.84546714 119.91723198 -143.05756392 118.44113525 -140.26953125 116.96484375 C-113.0825891 102.49315529 -87.04492832 86.29380478 -63 67 C-61.99453125 66.19433594 -60.9890625 65.38867188 -59.953125 64.55859375 C-48.25809124 54.57049411 -39.77434751 41.40317184 -31.3984375 28.63671875 C-11.40889119 -1.78962999 -11.40889119 -1.78962999 0 0 Z " fill="#51B2E4" transform="translate(824,679)"/>
<path d="M0 0 C3.54968744 2.45094972 6.90886936 5.10446082 10.23681641 7.84570312 C11.03474609 8.47992188 11.83267578 9.11414063 12.65478516 9.76757812 C23.72229144 18.98732518 30.29868011 30.77977735 35.95947266 43.79492188 C47.21503418 69.66556093 61.63876949 93.4118485 76.49804688 117.3112793 C82.95760435 127.7061829 89.25944218 138.16509822 95.23681641 148.84570312 C95.6011377 149.4815332 95.96545898 150.11736328 96.34082031 150.77246094 C124.77900664 200.81619568 128.22523643 263.18737262 114.78417969 317.60583496 C114.00962727 320.77538498 113.27920334 323.95467367 112.54931641 327.13476562 C110.39296683 336.3781029 107.89624787 345.41335656 104.67431641 354.34570312 C104.40538574 355.09384277 104.13645508 355.84198242 103.859375 356.61279297 C101.89871767 361.76554627 99.30349182 366.27147008 96.23681641 370.84570312 C94.73398712 367.84004455 95.60516089 365.51743423 96.11181641 362.22070312 C106.10877811 292.03195097 96.60509039 188.90936891 59.57275391 124.13378906 C58.14049922 121.68073882 56.74909614 119.20725809 55.36181641 116.72851562 C52.8675809 112.28977444 50.33095874 107.87752774 47.76904297 103.47753906 C46.7517988 101.73026497 45.73809275 99.98092598 44.72802734 98.22949219 C29.02477701 71.04803543 13.40701298 50.24959159 -17.07568359 39.47070312 C-38.22197931 31.95145506 -65.01297846 17.65042554 -76.20068359 -2.77929688 C-76.92081704 -5.81986031 -77.21744814 -8.03934 -76.76318359 -11.15429688 C-61.06228251 -32.93296613 -16.94432442 -11.09287813 0 0 Z " fill="#51B2E4" transform="translate(804.76318359375,86.154296875)"/>
<path d="M0 0 C7.01875573 3.86501271 10.99339482 10.07506341 13.66796875 17.5 C20.55666019 41.6408276 16.53145821 67.2554751 13.91015625 91.76464844 C12.52370121 104.76782414 11.3650028 117.75114261 10.52536011 130.80105591 C8.19527992 166.96020044 4.57182987 204.31235228 -12.80078125 236.73193359 C-14.26435181 239.46553089 -15.70354038 242.21146684 -17.14453125 244.95703125 C-25.61875253 260.993963 -34.6857334 276.61315375 -44.08203125 292.125 C-44.6637207 293.08841309 -45.24541016 294.05182617 -45.84472656 295.04443359 C-64.75517 326.28562758 -85.95752954 355.5105211 -112.08203125 381.125 C-112.08203125 377.59531214 -111.2840907 376.46785778 -109.44140625 373.50390625 C-108.87156006 372.57900391 -108.30171387 371.65410156 -107.71459961 370.70117188 C-107.09335205 369.70666016 -106.47210449 368.71214844 -105.83203125 367.6875 C-104.53598202 365.58492894 -103.2404171 363.48205929 -101.9453125 361.37890625 C-101.29256348 360.3233252 -100.63981445 359.26774414 -99.96728516 358.18017578 C-90.62663272 343.04304491 -81.70318464 327.68256994 -73.08203125 312.125 C-72.23487549 310.59746094 -72.23487549 310.59746094 -71.37060547 309.0390625 C-39.86477035 251.98531198 -21.97154079 198.17918861 -21.70703125 132.5 C-21.69917603 131.54833954 -21.6913208 130.59667908 -21.68322754 129.61618042 C-21.59761676 116.31735095 -22.71483604 103.53866238 -24.75082397 90.40113831 C-28.27523996 66.18048002 -31.87954063 23.81014922 -16.35546875 2.546875 C-11.54161227 -2.82810585 -6.32706824 -2.65903055 0 0 Z " fill="#51B2E4" transform="translate(983.08203125,286.875)"/>
<path d="M0 0 C1.83029883 2.74544824 2.99934785 5.1897201 4.2578125 8.22265625 C4.71003174 9.30087646 5.16225098 10.37909668 5.62817383 11.48999023 C6.12212646 12.66891846 6.6160791 13.84784668 7.125 15.0625 C21.72533847 49.55609134 38.22806056 83.21310832 57.44238281 115.37695312 C58.88586542 117.80779594 60.30435949 120.25079137 61.7109375 122.703125 C73.9142355 143.93345531 87.79721832 163.19072718 107.08203125 178.5859375 C110.33687467 181.27869953 113.41968097 184.1116054 116.5 187 C120.39553938 190.64910206 124.33336843 194.1570049 128.5 197.5 C133.90229795 201.83761149 138.94595616 206.49941595 144.0078125 211.22265625 C146.32240262 213.38077719 148.66895746 215.4917381 151.0625 217.5625 C155.93221535 221.78020325 160.65668023 226.15561392 165.39257812 230.52197266 C166.99161403 231.99228908 168.59664257 233.4557958 170.203125 234.91796875 C203.42316661 265.22220768 203.42316661 265.22220768 204.25 274.9375 C204 278 204 278 202.6875 279.8125 C198.2665043 282.92357105 193.14864636 282.4563719 188 282 C165.42000432 277.85362094 147.9276663 267.336068 132 251 C130.98486328 250.00033203 130.98486328 250.00033203 129.94921875 248.98046875 C125.06460129 244.16152682 120.44736881 239.22195947 116 234 C115.09549552 232.9475354 114.19050735 231.8954864 113.28515625 230.84375 C110.69645762 227.83419712 108.11546722 224.81814785 105.53759766 221.79931641 C104.54620614 220.6391774 103.55377096 219.47992905 102.56005859 218.32177734 C96.91913587 211.74696633 91.44705522 205.07599033 86.12915039 198.23706055 C82.96535315 194.18444863 79.70958041 190.2255637 76.375 186.3125 C75.91899414 185.77713623 75.46298828 185.24177246 74.99316406 184.69018555 C74.09476478 183.63587238 73.196328 182.58159116 72.29785156 181.52734375 C38.34551732 141.57139887 23.55619795 90.42278171 9.6875 40.75 C9.4325174 39.83674957 9.17753479 38.92349915 8.91482544 37.98257446 C6.41236947 28.99383686 3.95359263 19.99370621 1.64453125 10.953125 C1.32460205 9.70176758 1.00467285 8.45041016 0.67504883 7.16113281 C0 4 0 4 0 0 Z " fill="#51B2E4" transform="translate(43,539)"/>
<path d="M0 0 C1.70806381 3.41612761 -0.48168933 6.97205937 -1.625 10.4375 C-19.78227481 68.5291027 -19.84993624 140.75283317 -10.40478516 200.62695312 C-7.49293356 219.36311593 -5.54135445 238.62113452 -17 255 C-22.11969112 259.03667954 -22.11969112 259.03667954 -26 258.875 C-35.35758327 253.02651046 -38.27924364 239.37853119 -40.65283203 229.20068359 C-57.66058008 151.47064449 -40.62352595 69.67714979 -1 1 C-0.67 0.67 -0.34 0.34 0 0 Z " fill="#51B1E4" transform="translate(48,252)"/>
<path d="M0 0 C2.66990081 4.00485122 2.45235833 7.36767675 2 12 C1.22614678 15.84455362 0.14617168 19.56391248 -1 23.3125 C-1.31541748 24.36139404 -1.63083496 25.41028809 -1.95581055 26.4909668 C-13.59616275 64.31281404 -33.70698365 96.43179089 -65 121 C-65.60312012 121.47953125 -66.20624023 121.9590625 -66.82763672 122.453125 C-94.75253939 144.60841968 -125.93146737 162.55447717 -159.25 175.25 C-160.28036377 175.64533936 -161.31072754 176.04067871 -162.37231445 176.44799805 C-163.32710693 176.80031494 -164.28189941 177.15263184 -165.265625 177.515625 C-166.10899414 177.82790039 -166.95236328 178.14017578 -167.82128906 178.46191406 C-170 179 -170 179 -173 178 C-172.4423999 177.71914551 -171.8847998 177.43829102 -171.31030273 177.14892578 C-159.36245366 171.09829446 -147.86611916 164.84373573 -137 157 C-136.34692871 156.52949219 -135.69385742 156.05898438 -135.02099609 155.57421875 C-125.66298554 148.78467867 -116.70289109 141.60782532 -108 134 C-107.14019531 133.25234375 -106.28039062 132.5046875 -105.39453125 131.734375 C-81.39975851 110.52436921 -66.29007209 85.55969722 -51.53564453 57.41333008 C-34.92189815 25.72326625 -34.92189815 25.72326625 -26 16 C-25.28199219 15.21367188 -24.56398438 14.42734375 -23.82421875 13.6171875 C-17.44541468 6.94092624 -9.78889223 -0.81574102 0 0 Z " fill="#51B2E4" transform="translate(939,639)"/>
<path d="M0 0 C15.10928816 8.03539416 22.91320018 26.95146423 27.70410156 42.54101562 C31.25462476 55.04380889 35.70154697 71.17304121 29.03125 83.3515625 C25.16441527 87.70289425 21.67764409 90.09710153 15.78125 90.6640625 C11.33169867 90.29326656 8.34587916 89.2851998 5.03125 86.3515625 C-2.05323327 77.70749744 -3.5934789 67.4215682 -4.59375 56.6015625 C-5.87171295 45.95557549 -10.13633148 36.14482968 -13.91137695 26.17773438 C-19.18286902 12.08796478 -19.18286902 12.08796478 -17.96875 5.3515625 C-13.78328307 -1.3451846 -7.42377777 -2.44513315 0 0 Z " fill="#51B2E5" transform="translate(938.96875,157.6484375)"/>
<path d="M0 0 C7.50935851 5.22881462 18.71791495 13.48804214 20.85546875 22.98828125 C20.71570629 26.97151143 20.46957059 29.21041892 17.98046875 32.36328125 C13.69757269 35.63843706 9.02182189 35.60297483 3.85546875 34.98828125 C-11.80668942 31.08270491 -33.81200944 20.62169678 -43.14453125 6.98828125 C-43.91446848 3.8872927 -43.79636519 1.11141603 -43.14453125 -2.01171875 C-32.8637576 -16.22337644 -11.83416312 -7.30059997 0 0 Z " fill="#51B1E4" transform="translate(329.14453125,821.01171875)"/>
<path d="M0 0 C4.77144822 5.27370593 4.6621822 10.96427971 4.42578125 17.8671875 C2.01912024 45.9647891 -17.88360216 72.51076462 -37 92 C-38.31035113 88.31259088 -37.68707035 85.70690866 -36.77734375 81.953125 C-36.3453064 80.12019897 -36.3453064 80.12019897 -35.90454102 78.25024414 C-35.58225613 76.91681441 -35.25990744 75.5834001 -34.9375 74.25 C-32.89545433 65.66585688 -30.9426621 57.09807387 -29.4765625 48.39453125 C-23.29734381 11.83787505 -23.29734381 11.83787505 -8.5 0 C-5.08462029 -1.36615188 -3.44360093 -1.31882589 0 0 Z " fill="#51B2E4" transform="translate(895,523)"/>
<path d="M0 0 C2.95803635 12.37507611 -6.88395193 29.42666151 -13 40 C-17.49412322 46.60759568 -23.3220202 52.4406734 -31 55 C-35.60698012 55.40603893 -39.69535498 55.54360209 -44 53.75 C-46.14252033 51.87529471 -46.96210497 50.62582661 -48 48 C-48.02503095 35.35936978 -36.68433275 24.97779105 -28.50341797 16.55029297 C-27.08535517 15.08801645 -25.68465896 13.60895587 -24.28515625 12.12890625 C-10.55337569 -2.11067514 -10.55337569 -2.11067514 0 0 Z " fill="#51B1E4" transform="translate(115,132)"/>
<path d="M0 0 C-0.5237101 3.95644613 -1.44698668 5.95906583 -4.2109375 8.8203125 C-4.87327393 9.51527832 -5.53561035 10.21024414 -6.21801758 10.92626953 C-6.92982178 11.65185059 -7.64162598 12.37743164 -8.375 13.125 C-9.10162842 13.87765137 -9.82825684 14.63030273 -10.5769043 15.40576172 C-12.03792207 16.91539932 -13.50328065 18.42084909 -14.97314453 19.921875 C-16.70892781 21.70156511 -18.42059622 23.49924039 -20.12109375 25.3125 C-26.96640521 32.4658008 -34.4797749 38.79041271 -44 42 C-47.92774999 41.85972321 -50.40380795 41.34446652 -53.8125 39.375 C-56.65963276 36.28382729 -57.43551878 34.16304902 -58 30 C-56.36859021 22.65865596 -50.91079434 18.29068926 -45 14 C-34.9921123 7.88115927 -11.5905305 -5.79526525 0 0 Z " fill="#51B1E4" transform="translate(178,63)"/>
<path d="M0 0 C2.44140625 1.90429688 2.44140625 1.90429688 4.8828125 3.80859375 C-4.45705863 14.082452 -18.22805261 22.04225909 -32.23828125 22.9453125 C-34.65729082 23.05031125 -37.07112968 23.09254354 -39.4921875 23.12109375 C-40.30429687 23.15009766 -41.11640625 23.17910156 -41.953125 23.20898438 C-49.38451993 23.28639474 -54.29115523 20.98699363 -60.1171875 16.49609375 C-62.65952866 13.07982281 -62.52513761 10.96968483 -62.1171875 6.80859375 C-56.97798943 3.45611219 -53.73284602 2.31813339 -47.453125 2.33984375 C-46.73919586 2.33279419 -46.02526672 2.32574463 -45.28970337 2.31848145 C-42.27285011 2.28936767 -39.25666722 2.30544501 -36.23974609 2.31787109 C-27.17024062 2.32777446 -19.53741998 1.88844018 -10.93603516 -1.43164062 C-6.89069912 -2.52198237 -3.64567565 -2.05153335 0 0 Z " fill="#F9F9FA" transform="translate(386.1171875,382.19140625)"/>
<path d="M0 0 C5.67549553 2.04317839 9.29873721 5.59747441 12 11 C12.93368933 18.10216146 10.98268426 23.62184929 8 30 C7.67 30 7.34 30 7 30 C7.04640625 29.05898438 7.0928125 28.11796875 7.140625 27.1484375 C7.69578988 19.38632967 7.69578988 19.38632967 5.25 12.25 C2.38432334 9.38432334 0.41673156 8.1229223 -3.65625 7.76953125 C-4.5946875 7.78371094 -5.533125 7.79789063 -6.5 7.8125 C-7.4384375 7.81894531 -8.376875 7.82539063 -9.34375 7.83203125 C-11.70620585 7.98142184 -13.73716665 8.33289111 -16 9 C-12.53214878 2.06429755 -7.78056925 -0.97257116 0 0 Z " fill="#E9EBEF" transform="translate(391,232)"/>
<path d="M0 0 C0.99 0.66 1.98 1.32 3 2 C3 2.99 3 3.98 3 5 C2.39414062 5.20753906 1.78828125 5.41507812 1.1640625 5.62890625 C-5.69630972 8.15141234 -11.16120017 11.65036196 -17 16 C-17.99 16.66 -18.98 17.32 -20 18 C-18.26707093 11.06828373 -14.42086977 6.01739148 -9 1.5 C-5.63965935 -0.18017032 -3.70523537 -0.49403138 0 0 Z " fill="#E6E8EC" transform="translate(299,332)"/>
<path d="M0 0 C2.78621464 0.69393677 5.41815835 0.76823807 8.28759766 0.86669922 C9.44775391 0.90859375 10.60791016 0.95048828 11.80322266 0.99365234 C13.00978516 1.03296875 14.21634766 1.07228516 15.45947266 1.11279297 C16.68150391 1.15597656 17.90353516 1.19916016 19.16259766 1.24365234 C22.17811186 1.34966651 25.19370714 1.45173233 28.20947266 1.55029297 C28.20947266 1.88029297 28.20947266 2.21029297 28.20947266 2.55029297 C27.22664307 2.57534912 26.24381348 2.60040527 25.23120117 2.6262207 C21.54652296 2.72117416 17.86199521 2.82117135 14.17749023 2.92260742 C12.58996121 2.96562683 11.00239566 3.00732133 9.41479492 3.04760742 C-2.71820927 3.35253114 -2.71820927 3.35253114 -14.79052734 4.55029297 C-12.38380336 2.14356899 -10.67674186 1.75897122 -7.41552734 0.86279297 C-6.45904297 0.59080078 -5.50255859 0.31880859 -4.51708984 0.03857422 C-1.79052734 -0.44970703 -1.79052734 -0.44970703 0 0 Z " fill="#6E7894" transform="translate(357.79052734375,340.44970703125)"/>
<path d="M0 0 C1 2 1 2 0.8125 5.75 C0.75599498 10.19775219 2.11937528 12.55925381 5 16 C7.10575643 17.83300909 7.10575643 17.83300909 9 19 C5.44051799 18.67641073 3.46536524 18.3899006 0.6875 16.0625 C-1.90478017 12.89415758 -2.15817718 11.03481979 -2.1875 7 C-2.20167969 6.113125 -2.21585937 5.22625 -2.23046875 4.3125 C-2 2 -2 2 0 0 Z " fill="#DFE2E8" transform="translate(340,293)"/>
<path d="M0 0 C2.5625 0.1875 2.5625 0.1875 4.5625 2.1875 C4.1875 4.8125 4.1875 4.8125 3.5625 7.1875 C1.56295254 7.23004356 -0.43791636 7.22830783 -2.4375 7.1875 C-3.4375 6.1875 -3.4375 6.1875 -3.5625 3.6875 C-3.39599509 0.35740177 -3.31519894 0.2550153 0 0 Z " fill="#DFE2E8" transform="translate(349.4375,292.8125)"/>
<path d="M0 0 C0.33 0.66 0.66 1.32 1 2 C-1.24623699 2.69969682 -3.49716414 3.38435043 -5.75 4.0625 C-7.00296875 4.44535156 -8.2559375 4.82820313 -9.546875 5.22265625 C-12.6738008 5.92656828 -14.09466046 6.16653785 -17 5 C-14.51737568 2.51737568 -12.38224713 1.92713025 -9.0625 0.8125 C-8.00160156 0.44769531 -6.94070313 0.08289062 -5.84765625 -0.29296875 C-3 -1 -3 -1 0 0 Z " fill="#4F5C7D" transform="translate(423,41)"/>
<path d="M0 0 C4.42323682 0.58265272 7.5155864 2.26766211 11.3125 4.5625 C12.38113281 5.20316406 13.44976562 5.84382813 14.55078125 6.50390625 C15.35902344 6.99761719 16.16726563 7.49132812 17 8 C15 9 15 9 12.828125 8.328125 C11.97734375 7.97234375 11.1265625 7.6165625 10.25 7.25 C8.91582031 6.693125 8.91582031 6.693125 7.5546875 6.125 C4.64386318 4.84316911 1.81405798 3.48108315 -1 2 C-0.67 1.34 -0.34 0.68 0 0 Z " fill="#252935" transform="translate(396,361)"/>
<path d="M0 0 C0.66 0.33 1.32 0.66 2 1 C2 1.99 2 2.98 2 4 C0.04669132 5.03041513 -1.91281528 6.0490893 -3.875 7.0625 C-4.96554688 7.63097656 -6.05609375 8.19945312 -7.1796875 8.78515625 C-8.11039063 9.18605469 -9.04109375 9.58695312 -10 10 C-10.66 9.67 -11.32 9.34 -12 9 C-10.56351736 7.87370125 -9.12577415 6.7490101 -7.6875 5.625 C-6.88699219 4.99851562 -6.08648437 4.37203125 -5.26171875 3.7265625 C-3.55336788 2.42243282 -1.78827274 1.19218183 0 0 Z " fill="#3F4966" transform="translate(252,378)"/>
<path d="M0 0 C1.19126781 3.57380342 0.7349445 5.50883302 0.0625 9.1875 C-0.13214844 10.27417969 -0.32679688 11.36085938 -0.52734375 12.48046875 C-0.68332031 13.31191406 -0.83929688 14.14335937 -1 15 C-3 13 -3 13 -3.046875 10.72265625 C-2.94890625 9.84480469 -2.8509375 8.96695312 -2.75 8.0625 C-2.66234375 7.18722656 -2.5746875 6.31195313 -2.484375 5.41015625 C-2 3 -2 3 0 0 Z " fill="#576284" transform="translate(272,422)"/>
<path d="M0 0 C5.06562383 -0.25328119 9.15758367 0.66416101 14 2 C13.01 2.495 13.01 2.495 12 3 C12 3.66 12 4.32 12 5 C10.37276701 4.54965877 8.74826336 4.08944646 7.125 3.625 C5.76761719 3.24214844 5.76761719 3.24214844 4.3828125 2.8515625 C2 2 2 2 0 0 Z " fill="#566182" transform="translate(348,364)"/>
<path d="M0 0 C0 0.66 0 1.32 0 2 C-1.76641683 2.6987693 -3.53832664 3.38366583 -5.3125 4.0625 C-6.79169922 4.63677734 -6.79169922 4.63677734 -8.30078125 5.22265625 C-11 6 -11 6 -14 5 C-12.421924 4.15675328 -10.8372958 3.32576082 -9.25 2.5 C-8.36828125 2.0359375 -7.4865625 1.571875 -6.578125 1.09375 C-4 0 -4 0 0 0 Z " fill="#25355E" transform="translate(407,46)"/>
<path d="M0 0 C0.65234375 1.765625 0.65234375 1.765625 1 4 C0.00390625 5.921875 0.00390625 5.921875 -1.4375 7.75 C-2.14712891 8.67039062 -2.14712891 8.67039062 -2.87109375 9.609375 C-3.24363281 10.06828125 -3.61617188 10.5271875 -4 11 C-5 8 -5 8 -3.6875 4.375 C-2 1 -2 1 0 0 Z " fill="#435074" transform="translate(428,549)"/>
<path d="M0 0 C0.66 0.33 1.32 0.66 2 1 C1.32902328 5.19360449 -0.8558394 8.40334352 -3 12 C-4 10 -4 10 -3.22265625 7.6171875 C-2.83980469 6.71226562 -2.45695313 5.80734375 -2.0625 4.875 C-1.68222656 3.96492188 -1.30195313 3.05484375 -0.91015625 2.1171875 C-0.60980469 1.41851562 -0.30945313 0.71984375 0 0 Z " fill="#545E80" transform="translate(257,400)"/>
<path d="M0 0 C0.33 0.66 0.66 1.32 1 2 C-3.455 2.495 -3.455 2.495 -8 3 C-5.45189726 -0.82215411 -4.39145359 -1.46381786 0 0 Z " fill="#3B496D" transform="translate(423,41)"/>
<path d="M0 0 C2 1 2 1 2 1 Z " fill="#81C4EA" transform="translate(764,818)"/>
<path d="" fill="#8FCEEC" transform="translate(0,0)"/>
<path d="" fill="#80C1E8" transform="translate(0,0)"/>
<path d="" fill="#8A8CA3" transform="translate(0,0)"/>
</svg>
