<?xml version="1.0" encoding="UTF-8" standalone="no"?>
<svg
   xmlns:dc="http://purl.org/dc/elements/1.1/"
   xmlns:cc="http://creativecommons.org/ns#"
   xmlns:rdf="http://www.w3.org/1999/02/22-rdf-syntax-ns#"
   xmlns:svg="http://www.w3.org/2000/svg"
   xmlns="http://www.w3.org/2000/svg"
   xmlns:sodipodi="http://sodipodi.sourceforge.net/DTD/sodipodi-0.dtd"
   xmlns:inkscape="http://www.inkscape.org/namespaces/inkscape"
   height="1000"
   viewBox="-3.0229103 -0.22032094 172.29755 173.41613"
   width="1000"
   version="1.1"
   id="svg363"
   sodipodi:docname="lambda-logo.svg"
   inkscape:version="0.92.5 (2060ec1f9f, 2020-04-08)">
  <metadata
     id="metadata369">
    <rdf:RDF>
      <cc:Work
         rdf:about="">
        <dc:format>image/svg+xml</dc:format>
        <dc:type
           rdf:resource="http://purl.org/dc/dcmitype/StillImage" />
        <dc:title></dc:title>
      </cc:Work>
    </rdf:RDF>
  </metadata>
  <defs
     id="defs367" />
  <sodipodi:namedview
     pagecolor="#ffffff"
     bordercolor="#666666"
     borderopacity="1"
     objecttolerance="10"
     gridtolerance="10"
     guidetolerance="10"
     inkscape:pageopacity="0"
     inkscape:pageshadow="2"
     inkscape:window-width="1920"
     inkscape:window-height="1009"
     id="namedview365"
     showgrid="false"
     inkscape:zoom="0.0944"
     inkscape:cx="1221.5"
     inkscape:cy="1250"
     inkscape:window-x="0"
     inkscape:window-y="0"
     inkscape:window-maximized="1"
     inkscape:current-layer="svg363" />
  <path
     d="m 82.344713,92.151797 c -0.625457,0.889016 -1.152573,1.620683 -1.660019,2.360218 Q 68.54531,112.37886 56.413793,130.24177 45.128021,146.8577 33.818646,163.45396 a 1.5262738,1.5262738 0 0 1 -1.073898,0.62546 q -15.96687,-0.13768 -31.92587229,-0.34617 c -0.11801086,0 -0.23995542,-0.0354 -0.47204345,-0.0708 a 5.6802562,5.6802562 0 0 1 0.29896085,-0.64906 Q 11.782085,145.7484 22.918376,128.49128 32.795886,113.19707 42.685196,97.910728 53.644471,80.925031 64.591946,63.915732 c 1.077832,-1.67182 2.198935,-3.312171 3.221696,-5.015461 a 2.0691238,2.0691238 0 0 0 0.220287,-1.506606 C 66.067082,51.123355 64.060897,44.868779 62.058646,38.614203 61.2011,35.935357 60.304218,33.272245 59.501744,30.577664 59.24212,29.712251 58.813347,29.448693 57.928266,29.452627 c -6.687283,0.02754 -13.335228,0.01967 -20.002842,0.01967 -1.266649,0 -1.270583,0 -1.270583,-1.250915 0,-8.197821 0,-16.395642 -0.0236,-24.5934637 0,-0.9126174 0.29896,-1.1171695 1.156506,-1.1171695 q 20.136587,0.035403 40.281041,0 a 1.2941858,1.2941858 0 0 1 1.416131,0.955888 Q 90.105894,30.18036 100.72687,56.874418 q 12.39114,31.131264 24.78228,62.270402 c 2.56477,6.44339 5.14921,12.88285 7.68644,19.34198 0.3029,0.78673 0.61759,0.93622 1.4122,0.69233 7.03738,-2.17534 14.0905,-4.29167 21.12394,-6.47093 0.88508,-0.27536 1.20765,-0.0905 1.48301,0.78674 2.39955,7.54089 4.84631,15.06605 7.27733,22.59908 0.0826,0.25962 0.14555,0.52318 0.24389,0.88508 -0.50351,0.18488 -0.97555,0.39337 -1.4594,0.52711 q -23.99554,7.60384 -47.96355,15.21554 c -0.76313,0.23995 -0.99129,-0.0197 -1.24698,-0.66086 Q 106.74542,153.50958 99.389416,134.97401 92.194687,116.82394 84.99209,98.673864 c -0.719866,-1.817367 -1.427931,-3.642602 -2.147797,-5.459969 -0.114078,-0.310762 -0.271425,-0.582187 -0.49958,-1.062098 z"
     id="path361"
     inkscape:connector-curvature="0"
     style="fill:#fa7e14;stroke-width:0.39336956" />
</svg>
